<svg xmlns="http://www.w3.org/2000/svg" viewBox="0 0 64 64">
  <!-- Amsterdam canal house silhouette shaped like the letter E -->

  <!-- Stepped gable roof -->
  <polygon points="32,4 22,14 22,18 18,18 18,22 14,22 14,26 50,26 50,22 46,22 46,18 42,18 42,14" fill="#1e40af"/>

  <!-- House body (vertical bar of E) -->
  <rect x="14" y="26" width="10" height="34" rx="1" fill="#1e40af"/>

  <!-- Top horizontal bar of E (with window) -->
  <rect x="24" y="26" width="22" height="8" rx="1" fill="#1e40af"/>
  <rect x="34" y="27.5" width="8" height="5" rx="0.5" fill="#93c5fd"/>

  <!-- Middle horizontal bar of E (with window) -->
  <rect x="24" y="40" width="18" height="8" rx="1" fill="#1e40af"/>
  <rect x="32" y="41.5" width="6" height="5" rx="0.5" fill="#93c5fd"/>

  <!-- Bottom horizontal bar of E (with door) -->
  <rect x="24" y="54" width="22" height="6" rx="1" fill="#1e40af"/>

  <!-- Door -->
  <rect x="26" y="52" width="6" height="8" rx="1" fill="#2563eb"/>
  <rect x="27" y="53" width="4" height="6" rx="0.5" fill="#93c5fd"/>

  <!-- Top window on gable -->
  <circle cx="32" cy="19" r="3" fill="#93c5fd"/>

  <!-- Window details (mullions) -->
  <line x1="32" y1="16" x2="32" y2="22" stroke="#1e40af" stroke-width="0.6"/>
  <line x1="29" y1="19" x2="35" y2="19" stroke="#1e40af" stroke-width="0.6"/>
</svg>
