<svg width="99" height="36" viewBox="0 0 99 36" fill="none" xmlns="http://www.w3.org/2000/svg">
<path d="M74.7735 36H0L6.05989 13.3495C8.16532 5.47485 15.2978 0 23.4469 0H98.2204L92.1605 22.6506C90.0551 30.5234 82.9226 35.9982 74.7717 35.9982L74.7735 36Z" fill="#FF9B21"/>
<path d="M9.72215 14.3498L4.96777 32.1232H74.8551C81.2509 32.1232 86.8467 27.8256 88.4989 21.6484L93.2533 3.875H23.3659C16.9702 3.875 11.3744 8.17254 9.72215 14.3498Z" fill="#6A281C"/>
<path fill-rule="evenodd" clip-rule="evenodd" d="M69.7354 26.1319C70.483 26.791 71.5248 27.1196 72.8556 27.1196C73.8127 27.1196 74.6812 26.9246 75.4594 26.5364C76.2269 26.159 76.8281 25.6696 77.2579 25.0684C77.2705 25.0503 77.2994 25.0593 77.2994 25.081V26.8271C77.2994 26.8524 77.3193 26.8722 77.3446 26.8722H80.2409C80.2662 26.8722 80.286 26.8524 80.286 26.8271V19.4184C80.286 17.8763 79.8003 16.6719 78.827 15.8034C77.8538 14.9348 76.4688 14.5015 74.674 14.5015C73.3125 14.5015 72.1659 14.7633 71.2395 15.2869C70.826 15.5181 70.4432 15.7799 70.0893 16.0724C70.0695 16.0887 70.0677 16.1176 70.0839 16.1356L71.8029 18.1742C71.8192 18.1941 71.8481 18.1959 71.8679 18.1797C72.388 17.7246 72.9044 17.4483 73.3847 17.2876C73.7531 17.1522 74.1756 17.0836 74.6523 17.0836C75.5353 17.0836 76.1944 17.2858 76.6277 17.6903C77.0611 18.0948 77.2796 18.6257 77.2796 19.2847V19.3967C77.2796 19.422 77.2597 19.4418 77.2344 19.4418H74.0907C72.3988 19.4418 71.068 19.8012 70.0947 20.5198C69.1215 21.2385 68.6357 22.2334 68.6357 23.5064C68.6357 24.5844 69.0023 25.4602 69.7354 26.1337V26.1319ZM74.8545 24.4039C74.4952 24.5086 74.1286 24.561 73.7549 24.561C72.4981 24.561 71.8697 24.1204 71.8697 23.2356C71.8697 22.7571 72.0647 22.3833 72.453 22.1124C72.8574 21.8434 73.5237 21.708 74.4519 21.708H77.2471C77.276 21.708 77.2976 21.7351 77.2904 21.7621C77.1929 22.2027 77.0503 22.6993 76.727 23.1417C76.514 23.4324 76.1799 23.7574 75.8657 23.9524C75.5515 24.1474 75.2139 24.2973 74.8545 24.4021V24.4039Z" fill="white"/>
<path fill-rule="evenodd" clip-rule="evenodd" d="M57.316 26.6898C58.0256 26.9769 58.7569 27.1196 59.5099 27.1196C60.3098 27.1196 61.0321 26.9534 61.6821 26.6212C62.325 26.2853 62.8612 25.8285 63.2928 25.2525C63.3054 25.2344 63.3343 25.2434 63.3343 25.2651V26.8252C63.3343 26.8505 63.3542 26.8704 63.3795 26.8704H66.3661C66.3914 26.8704 66.4112 26.8505 66.4112 26.8252V9.06809C66.4112 9.04281 66.3914 9.02295 66.3661 9.02295H63.3795C63.3542 9.02295 63.3343 9.04281 63.3343 9.06809V16.1482C63.3343 16.1699 63.3072 16.1789 63.2928 16.1626C62.8775 15.6155 62.3557 15.1894 61.7273 14.8824C61.0935 14.5664 60.3694 14.4075 59.555 14.4075C58.7407 14.4075 58.0166 14.5592 57.2925 14.8607C56.5829 15.1478 55.9581 15.5704 55.4146 16.1283C54.8711 16.6863 54.4341 17.358 54.1018 18.1417C53.7859 18.9253 53.627 19.8011 53.627 20.7653C53.627 21.7296 53.7931 22.6288 54.1253 23.4125C54.4576 24.1817 54.8945 24.8444 55.4381 25.4023C55.9816 25.9603 56.6063 26.3901 57.316 26.6916V26.6898ZM60.131 24.1835C62.0379 24.1835 63.5835 22.6378 63.5835 20.731C63.5835 18.8242 62.0379 17.2767 60.131 17.2767C58.2242 17.2767 56.6786 18.8224 56.6786 20.731C56.6786 22.6396 58.2242 24.1835 60.131 24.1835Z" fill="white"/>
<path d="M40.1299 14.702C40.1299 14.6768 40.1497 14.6569 40.175 14.6569H43.2068C43.2321 14.6569 43.2519 14.6768 43.2519 14.702V16.1231C43.2519 16.1448 43.2808 16.1538 43.2934 16.1358C43.6799 15.6049 44.162 15.1878 44.7452 14.8826C45.3628 14.5666 46.058 14.4077 46.8272 14.4077C48.2753 14.4077 49.422 14.8609 50.2652 15.7656C51.1247 16.6558 51.5545 17.8999 51.5545 19.4979V26.8272C51.5545 26.8525 51.5346 26.8724 51.5093 26.8724H48.418C48.3927 26.8724 48.3728 26.8525 48.3728 26.8272V19.7381C48.3728 18.3297 47.2317 17.1885 45.8232 17.1885C44.4148 17.1885 43.2736 18.3297 43.2736 19.7381V26.8272C43.2736 26.8525 43.2537 26.8724 43.2284 26.8724H40.1768C40.1516 26.8724 40.1317 26.8525 40.1317 26.8272V14.702H40.1299Z" fill="white"/>
<path d="M29.2775 14.7021C29.2775 14.6768 29.2576 14.6569 29.2323 14.6569H26.1428C26.1175 14.6569 26.0977 14.6768 26.0977 14.7021V21.9862C26.0977 23.6005 26.513 24.8591 27.3418 25.7637C28.1706 26.6684 29.3407 27.1216 30.8484 27.1216C31.6032 27.1216 32.2803 26.9627 32.8834 26.6467C33.4649 26.3415 33.9488 25.9226 34.3352 25.3935C34.3478 25.3755 34.3767 25.3845 34.3767 25.4062V26.8273C34.3767 26.8525 34.3966 26.8724 34.4219 26.8724L37.4536 26.8507C37.4789 26.8507 37.4988 26.8309 37.4988 26.8056V14.6804C37.4988 14.6551 37.4789 14.6353 37.4536 14.6353L34.3785 14.6569C34.3533 14.6569 34.3334 14.6768 34.3334 14.7021V21.8381C34.3334 23.2339 33.2012 24.3661 31.8054 24.3661C30.4096 24.3661 29.2775 23.2339 29.2775 21.8381V14.7021Z" fill="white"/>
<path d="M24.6871 9.10236C24.6943 9.07347 24.6726 9.04639 24.6437 9.04639H23.154C22.1591 9.04639 21.3213 9.12945 20.6423 9.29557C19.9796 9.4617 19.4434 9.7488 19.0371 10.1551C18.6452 10.5469 18.3581 11.0742 18.1776 11.7387C18.0114 12.4014 17.9284 13.232 17.9284 14.2269V14.6115C17.9284 14.6368 17.9085 14.6567 17.8832 14.6567H15.9602C15.9349 14.6567 15.915 14.6765 15.915 14.7018V17.4157C15.915 17.441 15.9349 17.4609 15.9602 17.4609H17.8832C17.9085 17.4609 17.9284 17.4808 17.9284 17.506V26.827C17.9284 26.8523 17.9482 26.8721 17.9735 26.8721H20.9818C21.0071 26.8721 21.0269 26.8523 21.0269 26.827V17.506C21.0269 17.4808 21.0468 17.4609 21.0721 17.4609H23.9233C23.9485 17.4609 23.9684 17.441 23.9684 17.4157V14.7018C23.9684 14.6765 23.9485 14.6567 23.9233 14.6567H21.0721C21.0468 14.6567 21.0269 14.6368 21.0269 14.6115V14.068C21.0269 13.6003 21.0486 13.2302 21.0956 12.9593C21.1407 12.6722 21.2454 12.4537 21.4116 12.3038C21.5921 12.1377 21.8413 12.033 22.1573 11.9879C22.4733 11.9283 22.9031 11.8976 23.4466 11.8976H23.9323C23.9522 11.8976 23.9702 11.8831 23.9756 11.8633L24.6853 9.10417L24.6871 9.10236Z" fill="white"/>
</svg>
